<?xml version="1.0" encoding="utf-8"?>

<!-- Uploaded to: SVG Repo, www.svgrepo.com, Generator: SVG Repo Mixer Tools -->
<svg xmlns="http://www.w3.org/2000/svg" viewBox="0 0 24 24" fill="none">
  <path d="M12 1.969c-.328 0-.656.083-.938.25L3.306 7.094c-.563.328-.906.938-.906 1.594v10.625c0 .656.343 1.266.906 1.594l7.756 4.875c.563.344 1.313.344 1.875 0l7.75-4.875c.563-.328.907-.938.907-1.594V8.688c0-.657-.344-1.266-.906-1.594l-7.756-4.875c-.282-.167-.61-.25-.938-.25zm-.024 6.031c.094 0 .188 0 .274.031 1.075.274 1.804 1.281 1.804 2.407 0 1.054-.598 1.891-1.524 2.305l.05.055c.157.156.368.273.63.308.132.028 2.036.308 2.036 2.305 0 .48-.142.93-.387 1.286.109.109.219.218.246.308a.324.324 0 01-.082.328c-.082.109-.246.137-.355.082-1.07-.63-1.344-1.887-1.399-2.134a1.95 1.95 0 01-1.64.97c-.762 0-1.433-.349-1.845-.872a1.532 1.532 0 00-.332-.2 4.334 4.334 0 01-.441-.258c-.356-.258-.564-.614-.564-1.04 0-.625.415-1.004.866-1.305a2.496 2.496 0 01-1.127-2.086c0-1.054.598-1.996 1.57-2.414.489-.199 1.032-.253 1.57-.199h1.016c-.086-.137-.248-.332-.304-.496a.328.328 0 01.06-.36c.086-.085.226-.113.331-.085.442.114.8.527.966.833.05.028.36.226.689.226h.082zm-.414 1.25c-.79 0-1.45.743-1.45 1.653 0 .91.66 1.653 1.45 1.653.79 0 1.45-.743 1.45-1.653 0-.91-.66-1.653-1.45-1.653zm.082 3.968c-.985 0-1.789.883-1.789 1.973s.804 1.973 1.79 1.973c.984 0 1.788-.883 1.788-1.973s-.804-1.973-1.789-1.973z" fill="#539E43"/>
</svg>