<?xml version="1.0" encoding="utf-8"?><!-- Uploaded to: SVG Repo, www.svgrepo.com, Generator: SVG Repo Mixer Tools -->
<svg xmlns="http://www.w3.org/2000/svg" viewBox="0 0 24 24" fill="none">
  <rect width="20" height="20" fill="#3178C6" transform="translate(2 2)" rx="2"/>
  <path d="M14.4783 13.2143V15.1244C14.8207 15.3123 15.2331 15.4509 15.7143 15.5413C16.1955 15.6316 16.6951 15.6768 17.2143 15.6768C17.7143 15.6768 18.1767 15.6229 18.6026 15.5152C19.0285 15.4074 19.3917 15.2434 19.6936 15.0228C19.9954 14.8021 20.2308 14.5207 20.4 14.1768C20.5692 13.8328 20.6538 13.4161 20.6538 12.9244C20.6538 12.5805 20.5976 12.2797 20.4851 12.0219C20.3727 11.7641 20.2098 11.535 19.9954 11.3334C19.7809 11.1319 19.5182 10.9441 19.2071 10.7686C18.8962 10.5932 18.5421 10.4239 18.1429 10.2607C17.8504 10.1401 17.5965 10.0196 17.3774 9.899C17.1582 9.7784 16.9748 9.65781 16.8269 9.53723C16.6795 9.41664 16.5677 9.29124 16.4917 9.161C16.415 9.03077 16.3774 8.88397 16.3774 8.72717C16.3774 8.58015 16.4115 8.44758 16.4805 8.32829C16.5489 8.209 16.6503 8.10413 16.7826 8.01483C16.9154 7.92552 17.0815 7.85541 17.2809 7.80443C17.4805 7.75345 17.7017 7.72839 17.9472 7.72839C18.1455 7.72839 18.3473 7.74492 18.551 7.77798C18.7554 7.81104 18.9537 7.86144 19.1477 7.92957C19.341 7.9977 19.5224 8.08071 19.6914 8.17976C19.8604 8.2788 20.0052 8.39167 20.1266 8.51837V6.73685C19.8078 6.6068 19.4662 6.51663 19.1026 6.46621C18.7391 6.41578 18.3293 6.39057 17.8752 6.39057C17.3797 6.39057 16.9226 6.44616 16.5021 6.55732C16.0818 6.66848 15.7157 6.83499 15.4047 7.05684C15.0931 7.27869 14.847 7.55589 14.6652 7.88843C14.4838 8.22098 14.3935 8.61078 14.3935 9.05784C14.3935 9.56837 14.4783 10.0065 14.6465 10.3726C14.8157 10.7387 15.0424 11.0573 15.3277 11.3286C15.613 11.5994 15.9429 11.8393 16.3169 12.048C16.6914 12.2567 17.0826 12.4501 17.4932 12.6286C17.7909 12.7442 18.054 12.8631 18.2825 12.9852C18.5105 13.1073 18.7036 13.2349 18.8621 13.3674C19.0201 13.4998 19.1436 13.6434 19.2319 13.7982C19.3204 13.953 19.3646 14.1275 19.3646 14.3217C19.3646 14.4636 19.3318 14.5997 19.267 14.7298C19.2028 14.8594 19.1026 14.9744 18.9692 15.0747C18.8353 15.1744 18.6633 15.255 18.4537 15.315C18.2436 15.375 17.9812 15.405 17.6649 15.405C17.1835 15.405 16.7081 15.3244 16.2376 15.1624C15.7677 15.0004 15.3201 14.7548 14.8962 14.4261L14.4783 13.2143ZM8.60315 7.65072H13.1747V6.47675H6.31046V15.5413H8.60315V12.0568H12.8427V10.8828H8.60315V7.65072Z" fill="white"/>
</svg>